# xmcd CD database file
#
# Track frame offsets:
#	150
#	19537
#	39967
#	59332
#
# Disc length: 1062 seconds
#
# Revision: 1
# Processed by: cddbd v1.5.1PL0 Copyright (c) Steve Scherf et al.
# Submitted via: CDex 1.51
#
DISCID=25042404
DTITLE=KASUMI - OVA「バウンティドッグ」
DYEAR=1997
DGENRE=Anime
TTITLE0=夜をぶっとばせ
TTITLE1=NEO CITY
TTITLE2=夜をぶっとばせ (OFF VOCAL VERSION)
TTITLE3=NEO CITY (OFF VOCAL VERSION)
EXTD=YEAR: 1997
EXTT0=
EXTT1=
EXTT2=
EXTT3=
PLAYORDER=
